# xmcd
#
# Track frame offsets:
#	150
#	12982
#	25305
#	35552
#	48342
#	68120
#	80425
#	92537
#	106272
#	119487
#	131697
#	143632
#	163620
#	180937
#	203477
#	221010
#	236825
#	249492
#	265600
#	279037
#	298487
#	310195
#	325417
#
# Disc length: 4543
#
# Revision: 5
# Processed by: cddbd v1.5.1PL0 Copyright (c) Steve Scherf et al.
# Submitted via: EasyCDDAExtractor 6.2.0.3
# Normalized: r4:DSETVAR1
#
DISCID=4511bd17
DTITLE=Various Artist - Blues and Soul Masters Disc 2
DYEAR=2002
DGENRE=Other
TTITLE0=Percy Sledge - When A Man Loves A Woman
TTITLE1=Albert King - Born Under a Bad sign
TTITLE2=Aretha Franklin - Think
TTITLE3=Smokey Robinson - Going To A Go-Go
TTITLE4=Ray Charles - What'd I Say
TTITLE5=Mary Wells - My Guy
TTITLE6=Drifters - Under The Boardwalk
TTITLE7=Howlin' Wolf - Smokestack Lightning
TTITLE8=Elmore James - Dust My Broom
TTITLE9=Anne Peebles - I'm Gonna Tear Your Playhouse Down
TTITLE10=Judy Clay and William Bell - Private Number
TTITLE11=Staples Singers - I'll take you There
TTITLE12=Brook Benton - Rainy Night in Georgia
TTITLE13=B B King - The Thrill Is gone
TTITLE14=Fleetwood Mac - Need Your Love So Bad
TTITLE15=Dobie Gray - Drift Away
TTITLE16=Tommy Tucker - High Heel Sneakers
TTITLE17=Soul Children - I'll Be The Other Woman
TTITLE18=Ben E King - Stand By Me
TTITLE19=Gladys Knight - Midnight Train To Georgia
TTITLE20=Maxine Brown - Oh No Not My Baby
TTITLE21=Joe Turner - Chains Of Love
TTITLE22=Millie Jackson - I Don't Want To Be Right
EXTD=
EXTT0=
EXTT1=
EXTT2=
EXTT3=
EXTT4=
EXTT5=
EXTT6=
EXTT7=
EXTT8=
EXTT9=
EXTT10=
EXTT11=
EXTT12=
EXTT13=
EXTT14=
EXTT15=
EXTT16=
EXTT17=
EXTT18=
EXTT19=
EXTT20=
EXTT21=
EXTT22=
PLAYORDER=
